<svg xmlns="http://www.w3.org/2000/svg" viewBox="0 0 900 620" role="img" aria-labelledby="title desc">
  <title id="title">Campus group activity</title>
  <desc id="desc">Students gathering for food, study, and activities.</desc>
  <rect width="900" height="620" fill="#eff6ff"/>
  <circle cx="210" cy="226" r="70" fill="#2563eb"/>
  <circle cx="450" cy="180" r="74" fill="#10b981"/>
  <circle cx="686" cy="226" r="70" fill="#f97316"/>
  <path d="M118 488c16-102 82-164 174-164s158 62 174 164" fill="#bfdbfe"/>
  <path d="M356 488c16-112 88-180 190-180s174 68 190 180" fill="#bbf7d0"/>
  <path d="M542 488c16-102 82-164 174-164s158 62 174 164" fill="#fed7aa"/>
  <rect x="276" y="414" width="348" height="92" rx="24" fill="#fff"/>
  <path d="M334 458h84M482 458h84" stroke="#172033" stroke-width="18" stroke-linecap="round"/>
  <circle cx="450" cy="456" r="30" fill="#facc15"/>
  <path d="M104 120h142M656 122h138" stroke="#93c5fd" stroke-width="18" stroke-linecap="round"/>
</svg>
