<svg xmlns="http://www.w3.org/2000/svg" viewBox="0 0 900 620" role="img" aria-labelledby="title desc">
  <title id="title">Bluetooth keyboard</title>
  <desc id="desc">A compact keyboard and digital accessories.</desc>
  <rect width="900" height="620" fill="#f1f5f9"/>
  <rect x="156" y="176" width="588" height="304" rx="34" fill="#172033"/>
  <rect x="190" y="216" width="520" height="208" rx="18" fill="#334155"/>
  <g fill="#e2e8f0">
    <rect x="220" y="246" width="54" height="34" rx="7"/><rect x="292" y="246" width="54" height="34" rx="7"/><rect x="364" y="246" width="54" height="34" rx="7"/><rect x="436" y="246" width="54" height="34" rx="7"/><rect x="508" y="246" width="54" height="34" rx="7"/><rect x="580" y="246" width="54" height="34" rx="7"/>
    <rect x="220" y="304" width="54" height="34" rx="7"/><rect x="292" y="304" width="54" height="34" rx="7"/><rect x="364" y="304" width="54" height="34" rx="7"/><rect x="436" y="304" width="54" height="34" rx="7"/><rect x="508" y="304" width="54" height="34" rx="7"/><rect x="580" y="304" width="54" height="34" rx="7"/>
    <rect x="256" y="362" width="270" height="34" rx="7"/><rect x="548" y="362" width="86" height="34" rx="7"/>
  </g>
  <circle cx="706" cy="124" r="62" fill="#10b981" opacity=".72"/>
  <circle cx="160" cy="486" r="80" fill="#facc15" opacity=".65"/>
  <path d="M698 276c34 0 62 28 62 62s-28 62-62 62" fill="none" stroke="#60a5fa" stroke-width="18" stroke-linecap="round"/>
</svg>
