<svg xmlns="http://www.w3.org/2000/svg" viewBox="0 0 900 620" role="img" aria-labelledby="title desc">
  <title id="title">Second-hand books</title>
  <desc id="desc">Colorful books and campus notes on a desk.</desc>
  <rect width="900" height="620" fill="#eaf7f1"/>
  <circle cx="120" cy="110" r="82" fill="#facc15" opacity=".55"/>
  <circle cx="780" cy="110" r="118" fill="#60a5fa" opacity=".22"/>
  <rect x="118" y="388" width="664" height="74" rx="22" fill="#c08457"/>
  <rect x="176" y="192" width="116" height="218" rx="12" fill="#2563eb"/>
  <rect x="312" y="156" width="122" height="254" rx="12" fill="#10b981"/>
  <rect x="456" y="210" width="112" height="200" rx="12" fill="#f97316"/>
  <rect x="586" y="176" width="126" height="234" rx="12" fill="#facc15"/>
  <path d="M196 244h76M196 290h76M332 222h82M332 270h82M478 276h68M478 322h68M608 236h82M608 286h82" stroke="#fff" stroke-width="14" stroke-linecap="round" opacity=".82"/>
  <path d="M128 466h644" stroke="#9a6b43" stroke-width="24" stroke-linecap="round"/>
  <path d="M642 126c42 26 64 62 64 108 0 70-58 126-130 126-38 0-72-16-96-42" fill="none" stroke="#172033" stroke-width="18" stroke-linecap="round" opacity=".14"/>
</svg>
